
        <svg xmlns="http://www.w3.org/2000/svg" xmlns:xlink="http://www.w3.org/1999/xlink" version="1.1" width="3300" height="1572.6747113112035" viewBox="0 0 3300 1572.6747113112035">
			
			<g transform="scale(15) translate(10, 10)">
				<defs id="SvgjsDefs1370"/><g id="SvgjsG1371" featureKey="PXhRQw-0" transform="matrix(5.85137567394759,0,0,5.85137567394759,-1.1702740187281788,-32.18255504609835)" fill="#000"><path d="M6.32 5.5 l0.72 2.7 l-1.94 0 l0 11.8 l-2.96 0 l0 -11.8 l-1.94 0 l0.76 -2.7 l5.36 0 z M10.66 13.16 l0 6.84 l-2.82 0 l0 -14.5 l3.06 0 l1.58 6.12 l1.58 -6.12 l3.08 0 l0 14.5 l-2.82 0 l0 -6.84 l-1.84 5.8 z M21.520000000000003 8.04 c-0.17334 0 -0.26 0.09334 -0.26 0.28 l0 8.84 c0 0.10666 0.01666 0.18332 0.05 0.22998 s0.11 0.07 0.23 0.07 l1.1 0 c0.12 0 0.19666 -0.02334 0.23 -0.07 s0.05 -0.12332 0.05 -0.22998 l0 -8.84 c0 -0.18666 -0.08666 -0.28 -0.26 -0.28 l-1.14 0 z M25.86 17.94 c0 0.28 -0.03334 0.54334 -0.1 0.79 s-0.18 0.46332 -0.34 0.64998 s-0.37334 0.33666 -0.64 0.45 s-0.6 0.17 -1 0.17 l-3.36 0 c-0.4 0 -0.73334 -0.05666 -1 -0.17 s-0.48 -0.26334 -0.64 -0.45 s-0.27334 -0.40332 -0.34 -0.64998 s-0.1 -0.51 -0.1 -0.79 l0 -10.56 c0 -0.57334 0.15666 -1.03 0.47 -1.37 s0.81 -0.51 1.49 -0.51 l3.6 0 c0.68 0 1.1767 0.17 1.49 0.51 s0.47 0.79666 0.47 1.37 l0 10.56 z M27.060000000000002 7.26 c0 -0.53334 0.14334 -0.96 0.43 -1.28 s0.71666 -0.48 1.29 -0.48 l4.14 0 l0.5 2.7 l-3.18 0 c-0.17334 0 -0.26 0.09334 -0.26 0.28 l0 8.6 c0 0.18666 0.08666 0.28 0.26 0.28 l1.32 0 l0 -5.72 l2.82 0 l0 8.36 l-5.06 0 c-0.84 0 -1.4267 -0.17334 -1.76 -0.52 s-0.5 -0.92 -0.5 -1.72 l0 -10.5 z"/></g>
			</g>
		</svg>
	